<svg width="100%" viewBox="0 0 680 570" xmlns="http://www.w3.org/2000/svg">
  <defs>
    <radialGradient id="o-bl" cx="0" cy="0" gradientTransform="matrix(-29 -189 126 -19 156.0774873322458 389.50643618931105)" gradientUnits="userSpaceOnUse" r="1">
      <stop offset="0" stop-color="#fff" stop-opacity=".4"/>
      <stop offset="1" stop-opacity=".1"/>
    </radialGradient>
    <radialGradient id="o-tr" cx="0" cy="0" gradientTransform="matrix(50 -379 280 37 437.9225126677542 408.99227657282677)" gradientUnits="userSpaceOnUse" r="1">
      <stop offset="0" stop-color="#fff" stop-opacity=".6"/>
      <stop offset="1" stop-color="#fff" stop-opacity=".1"/>
    </radialGradient>
    <radialGradient id="o-tl" cx="0" cy="0" gradientTransform="matrix(-56 -288 149 -29 179.09151773485587 393.4909893349645)" gradientUnits="userSpaceOnUse" r="1">
      <stop offset="0" stop-color="#fff" stop-opacity=".8"/>
      <stop offset="1" stop-color="#fff" stop-opacity=".4"/>
    </radialGradient>
    <radialGradient id="o-br" cx="0" cy="0" gradientTransform="matrix(-77 -157 180 -89 372.492984798695 463.50643618931105)" gradientUnits="userSpaceOnUse" r="1">
      <stop offset="0" stop-color="#fff" stop-opacity=".3"/>
      <stop offset="1" stop-opacity=".3"/>
    </radialGradient>
    <radialGradient id="o-te" cx="0" cy="0" gradientTransform="matrix(-36 166 -112 -24 310 128.2)" gradientUnits="userSpaceOnUse" r="1">
      <stop offset="0" stop-color="#fff" stop-opacity="0"/>
      <stop offset="1" stop-color="#fff" stop-opacity=".2"/>
    </radialGradient>
    <radialGradient id="o-le" cx="0" cy="0" gradientTransform="matrix(88 89 -190 187 111 220.2)" gradientUnits="userSpaceOnUse" r="1">
      <stop offset="0" stop-color="#fff" stop-opacity=".2"/>
      <stop offset="1" stop-color="#fff" stop-opacity=".4"/>
    </radialGradient>
    <radialGradient id="o-be" cx="0" cy="0" gradientTransform="matrix(9 130 -276 20 215 284)" gradientUnits="userSpaceOnUse" r="1">
      <stop offset="0" stop-color="#fff" stop-opacity=".2"/>
      <stop offset="1" stop-color="#fff" stop-opacity=".3"/>
    </radialGradient>
    <radialGradient id="o-me" cx="0" cy="0" gradientTransform="matrix(-198 -104 327 -623 400 399.2)" gradientUnits="userSpaceOnUse" r="1">
      <stop offset="0" stop-color="#fff" stop-opacity=".2"/>
      <stop offset=".5" stop-color="#fff" stop-opacity=".2"/>
      <stop offset="1" stop-color="#fff" stop-opacity=".3"/>
    </radialGradient>
    <clipPath id="o-clip"><path d="M.2.2h512v512H.2z"/></clipPath>
  </defs>

  <rect width="680" height="560" fill="#0d0f18" rx="14" style="fill:rgb(13, 15, 24);stroke:none;color:rgb(255, 255, 255);stroke-width:1px;stroke-linecap:butt;stroke-linejoin:miter;opacity:1;font-family:&quot;Anthropic Sans&quot;, -apple-system, &quot;system-ui&quot;, &quot;Segoe UI&quot;, sans-serif;font-size:16px;font-weight:400;text-anchor:start;dominant-baseline:auto"/>

  <!-- Hugo logo -->
  <g transform="translate(50, 44) scale(0.3885)" fill-rule="evenodd" style="fill:rgb(0, 0, 0);stroke:none;color:rgb(255, 255, 255);stroke-width:1px;stroke-linecap:butt;stroke-linejoin:miter;opacity:1;font-family:&quot;Anthropic Sans&quot;, -apple-system, &quot;system-ui&quot;, &quot;Segoe UI&quot;, sans-serif;font-size:16px;font-weight:400;text-anchor:start;dominant-baseline:auto">
    <path fill="#ebb951" stroke="#fcd804" stroke-width="27" d="M1345.211 24.704l112.262 64.305a43 43 0 0 1 21.627 37.312v142.237a40 40 0 0 1-20.702 35.037l-120.886 66.584a42 42 0 0 1-41.216-.389l-106.242-61.155a57 57 0 0 1-28.564-49.4V138.71a64 64 0 0 1 31.172-54.939l98.01-58.564a54 54 0 0 1 54.54-.503z" style="fill:rgb(235, 185, 81);stroke:rgb(252, 216, 4);color:rgb(255, 255, 255);stroke-width:27px;stroke-linecap:butt;stroke-linejoin:miter;opacity:1;font-family:&quot;Anthropic Sans&quot;, -apple-system, &quot;system-ui&quot;, &quot;Segoe UI&quot;, sans-serif;font-size:16px;font-weight:400;text-anchor:start;dominant-baseline:auto"/>
    <path fill="#33ba91" stroke="#00a88a" stroke-width="27" d="M958.07 22.82l117.31 66.78a41 41 0 0 1 20.72 35.64v139.5a45 45 0 0 1-23.1 39.32L955.68 369.4a44 44 0 0 1-43.54-.41l-105.82-61.6a56 56 0 0 1-27.83-48.4V140.07a68 68 0 0 1 33.23-58.44l98.06-58.35a48 48 0 0 1 48.3-.46z" style="fill:rgb(51, 186, 145);stroke:rgb(0, 168, 138);color:rgb(255, 255, 255);stroke-width:27px;stroke-linecap:butt;stroke-linejoin:miter;opacity:1;font-family:&quot;Anthropic Sans&quot;, -apple-system, &quot;system-ui&quot;, &quot;Segoe UI&quot;, sans-serif;font-size:16px;font-weight:400;text-anchor:start;dominant-baseline:auto"/>
    <path fill="#0594cb" stroke="#0083c0" stroke-width="27" d="M575.26 20.97l117.23 68.9a40 40 0 0 1 19.73 34.27l.73 138.67a48 48 0 0 1-24.64 42.2l-115.13 64.11a45 45 0 0 1-44.53-.42l-105.83-61.6a55 55 0 0 1-27.33-47.53V136.52a63 63 0 0 1 29.87-53.59l99.3-61.4a49 49 0 0 1 50.6-.56z" style="fill:rgb(5, 148, 203);stroke:rgb(0, 131, 192);color:rgb(255, 255, 255);stroke-width:27px;stroke-linecap:butt;stroke-linejoin:miter;opacity:1;font-family:&quot;Anthropic Sans&quot;, -apple-system, &quot;system-ui&quot;, &quot;Segoe UI&quot;, sans-serif;font-size:16px;font-weight:400;text-anchor:start;dominant-baseline:auto"/>
    <path fill="#ff4088" stroke="#c9177e" stroke-width="27" d="M195.81 24.13l114.41 66.54a44 44 0 0 1 21.88 38.04v136.43a48 48 0 0 1-24.45 41.82L194.1 370.9a49 49 0 0 1-48.48-.23L41.05 310.48a53 53 0 0 1-26.56-45.93V135.08a55 55 0 0 1 26.1-46.8l102.8-63.46a51 51 0 0 1 52.42-.69z" style="fill:rgb(255, 64, 136);stroke:rgb(201, 23, 126);color:rgb(255, 255, 255);stroke-width:27px;stroke-linecap:butt;stroke-linejoin:miter;opacity:1;font-family:&quot;Anthropic Sans&quot;, -apple-system, &quot;system-ui&quot;, &quot;Segoe UI&quot;, sans-serif;font-size:16px;font-weight:400;text-anchor:start;dominant-baseline:auto"/>
    <path fill="#fff" d="M1320.72 89.15c58.79 0 106.52 47.73 106.52 106.51 0 58.8-47.73 106.52-106.52 106.52-58.78 0-106.52-47.73-106.52-106.52 0-58.78 47.74-106.51 106.52-106.51zm0 39.57c36.95 0 66.94 30 66.94 66.94a66.97 66.97 0 0 1-66.94 66.94c-36.95 0-66.94-29.99-66.94-66.94a66.97 66.97 0 0 1 66.93-66.94h.01zm-283.8 65.31c0 47.18-8.94 60.93-26.81 80.58-17.87 19.65-41.57 27.57-71.1 27.57-27 0-48.75-9.58-67.61-26.23-20.88-18.45-36.08-47.04-36.08-78.95 0-31.37 11.72-58.48 32.49-78.67 18.22-17.67 45.34-29.18 73.3-29.18 33.77 0 68.83 15.98 90.44 47.53l-31.73 26.82c-13.45-25.03-32.94-33.46-60.82-34.26-30.83-.88-64.77 28.53-62.25 67.75 1.4 21.94 11.65 59.65 60.96 66.57 25.9 3.63 55.36-24.02 55.36-39.04H944.4v-37.5h92.5V194l.02.03zm-562.6-94.65h42.29v112.17c0 17.8.49 29.33 1.47 34.61 1.69 8.48 4.81 14.37 11.17 19.5 6.37 5.13 13.8 6.59 24.84 6.59 11.2 0 14.96-1.74 20.66-6.6 5.69-4.85 9.12-9.46 10.28-16.53 1.15-7.07 3.07-18.8 3.07-35.18V99.38h42.28v108.78c0 24.86-1.07 42.43-3.21 52.69-2.14 10.27-6.08 18.93-11.82 26-5.74 7.06-13.42 12.69-23.03 16.88-9.62 4.19-22.16 6.28-37.65 6.28-18.7 0-32.87-2.28-42.52-6.85-9.66-4.57-17.3-10.5-22.9-17.8-5.61-7.3-9.3-14.95-11.08-22.96-2.58-11.86-3.88-29.38-3.88-52.55V99.38h.03zM93.91 299.92V92.7h43.35v75.48h71.92V92.7h43.48v207.22h-43.48v-90.61h-71.92v90.61z" style="fill:rgb(255, 255, 255);stroke:none;color:rgb(255, 255, 255);stroke-width:1px;stroke-linecap:butt;stroke-linejoin:miter;opacity:1;font-family:&quot;Anthropic Sans&quot;, -apple-system, &quot;system-ui&quot;, &quot;Segoe UI&quot;, sans-serif;font-size:16px;font-weight:400;text-anchor:start;dominant-baseline:auto"/>
  </g>

  <!-- "+" separator — moved down 10px, opacity raised to 0.7 -->
  <g transform="translate(340, 264)" style="fill:rgb(0, 0, 0);stroke:none;color:rgb(255, 255, 255);stroke-width:1px;stroke-linecap:butt;stroke-linejoin:miter;opacity:1;font-family:&quot;Anthropic Sans&quot;, -apple-system, &quot;system-ui&quot;, &quot;Segoe UI&quot;, sans-serif;font-size:16px;font-weight:400;text-anchor:start;dominant-baseline:auto">
    <rect x="-6" y="-28" width="12" height="56" rx="4" fill="rgba(255,255,255,0.7)" style="fill:rgba(255, 255, 255, 0.7);stroke:none;color:rgb(255, 255, 255);stroke-width:1px;stroke-linecap:butt;stroke-linejoin:miter;opacity:1;font-family:&quot;Anthropic Sans&quot;, -apple-system, &quot;system-ui&quot;, &quot;Segoe UI&quot;, sans-serif;font-size:16px;font-weight:400;text-anchor:start;dominant-baseline:auto"/>
    <rect x="-28" y="-6" width="56" height="12" rx="4" fill="rgba(255,255,255,0.7)" style="fill:rgba(255, 255, 255, 0.7);stroke:none;color:rgb(255, 255, 255);stroke-width:1px;stroke-linecap:butt;stroke-linejoin:miter;opacity:1;font-family:&quot;Anthropic Sans&quot;, -apple-system, &quot;system-ui&quot;, &quot;Segoe UI&quot;, sans-serif;font-size:16px;font-weight:400;text-anchor:start;dominant-baseline:auto"/>
  </g>

  <!-- Obsidian logo — shifted down 30px more for extra spacing -->
  <g transform="translate(270, 348) scale(0.273)" style="fill:rgb(0, 0, 0);stroke:none;color:rgb(255, 255, 255);stroke-width:1px;stroke-linecap:butt;stroke-linejoin:miter;opacity:1;font-family:&quot;Anthropic Sans&quot;, -apple-system, &quot;system-ui&quot;, &quot;Segoe UI&quot;, sans-serif;font-size:16px;font-weight:400;text-anchor:start;dominant-baseline:auto">
    <g clip-path="url(#o-clip)" style="fill:rgb(0, 0, 0);stroke:none;color:rgb(255, 255, 255);stroke-width:1px;stroke-linecap:butt;stroke-linejoin:miter;opacity:1;font-family:&quot;Anthropic Sans&quot;, -apple-system, &quot;system-ui&quot;, &quot;Segoe UI&quot;, sans-serif;font-size:16px;font-weight:400;text-anchor:start;dominant-baseline:auto">
      <path d="M382.3 475.6c-3.1 23.4-26 41.6-48.7 35.3-32.4-8.9-69.9-22.8-103.6-25.4l-51.7-4a34 34 0 0 1-22-10.2l-89-91.7a34 34 0 0 1-6.7-37.7s55-121 57.1-127.3c2-6.3 9.6-61.2 14-90.6 1.2-7.9 5-15 11-20.3L248 8.9a34.1 34.1 0 0 1 49.6 4.3L386 125.6a37 37 0 0 1 7.6 22.4c0 21.3 1.8 65 13.6 93.2 11.5 27.3 32.5 57 43.5 71.5a17.3 17.3 0 0 1 1.3 19.2 1494 1494 0 0 1-44.8 70.6c-15 22.3-21.9 49.9-25 73.1z" fill="#6c31e3" style="fill:rgb(108, 49, 227);stroke:none;color:rgb(255, 255, 255);stroke-width:1px;stroke-linecap:butt;stroke-linejoin:miter;opacity:1;font-family:&quot;Anthropic Sans&quot;, -apple-system, &quot;system-ui&quot;, &quot;Segoe UI&quot;, sans-serif;font-size:16px;font-weight:400;text-anchor:start;dominant-baseline:auto"/>
      <path d="M165.9 478.3c41.4-84 40.2-144.2 22.6-187-16.2-39.6-46.3-64.5-70-80-.6 2.3-1.3 4.4-2.2 6.5L60.6 342a34 34 0 0 0 6.6 37.7l89.1 91.7a34 34 0 0 0 9.6 7z" fill="url(#o-bl)" style="stroke:none;color:rgb(255, 255, 255);stroke-width:1px;stroke-linecap:butt;stroke-linejoin:miter;opacity:1;font-family:&quot;Anthropic Sans&quot;, -apple-system, &quot;system-ui&quot;, &quot;Segoe UI&quot;, sans-serif;font-size:16px;font-weight:400;text-anchor:start;dominant-baseline:auto"/>
      <path d="M278.4 307.8c11.2 1.2 22.2 3.6 32.8 7.6 34 12.7 65 41.2 90.5 96.3 1.8-3.1 3.6-6.2 5.6-9.2a1536 1536 0 0 0 44.8-70.6 17 17 0 0 0-1.3-19.2c-11-14.6-32-44.2-43.5-71.5-11.8-28.2-13.5-72-13.6-93.2 0-8.1-2.6-16-7.6-22.4L297.6 13.2a34 34 0 0 0-1.5-1.7 96 96 0 0 1 2 54 198.3 198.3 0 0 1-17.6 41.3l-7.2 14.2a171 171 0 0 0-19.4 71c-1.2 29.4 4.8 66.4 24.5 115.8z" fill="url(#o-tr)" style="stroke:none;color:rgb(255, 255, 255);stroke-width:1px;stroke-linecap:butt;stroke-linejoin:miter;opacity:1;font-family:&quot;Anthropic Sans&quot;, -apple-system, &quot;system-ui&quot;, &quot;Segoe UI&quot;, sans-serif;font-size:16px;font-weight:400;text-anchor:start;dominant-baseline:auto"/>
      <path d="M278.4 307.8c-19.7-49.4-25.8-86.4-24.5-115.9a171 171 0 0 1 19.4-71c2.3-4.8 4.8-9.5 7.2-14.1 7.1-13.9 14-27 17.6-41.4a96 96 0 0 0-2-54A34.1 34.1 0 0 0 248 9l-105.4 94.8a34.1 34.1 0 0 0-10.9 20.3l-12.8 85-.5 2.3c23.8 15.5 54 40.4 70.1 80a147 147 0 0 1 7.8 24.8c28-6.8 55.7-11 82.1-8.3z" fill="url(#o-tl)" style="stroke:none;color:rgb(255, 255, 255);stroke-width:1px;stroke-linecap:butt;stroke-linejoin:miter;opacity:1;font-family:&quot;Anthropic Sans&quot;, -apple-system, &quot;system-ui&quot;, &quot;Segoe UI&quot;, sans-serif;font-size:16px;font-weight:400;text-anchor:start;dominant-baseline:auto"/>
      <path d="M333.6 511c22.7 6.2 45.6-12 48.7-35.4a187 187 0 0 1 19.4-63.9c-25.6-55-56.5-83.6-90.4-96.3-36-13.4-75.2-9-115 .7 8.9 40.4 3.6 93.3-30.4 162.2 4 1.8 8.1 3 12.5 3.3 0 0 24.4 2 53.6 4.1 29 2 72.4 17.1 101.6 25.2z" fill="url(#o-br)" style="stroke:none;color:rgb(255, 255, 255);stroke-width:1px;stroke-linecap:butt;stroke-linejoin:miter;opacity:1;font-family:&quot;Anthropic Sans&quot;, -apple-system, &quot;system-ui&quot;, &quot;Segoe UI&quot;, sans-serif;font-size:16px;font-weight:400;text-anchor:start;dominant-baseline:auto"/>
      <g clip-rule="evenodd" fill-rule="evenodd" style="fill:rgb(0, 0, 0);stroke:none;color:rgb(255, 255, 255);stroke-width:1px;stroke-linecap:butt;stroke-linejoin:miter;opacity:1;font-family:&quot;Anthropic Sans&quot;, -apple-system, &quot;system-ui&quot;, &quot;Segoe UI&quot;, sans-serif;font-size:16px;font-weight:400;text-anchor:start;dominant-baseline:auto">
        <path d="M254.1 190c-1.3 29.2 2.4 62.8 22.1 112.1l-6.2-.5c-17.7-51.5-21.5-78-20.2-107.6a174.7 174.7 0 0 1 20.4-72c2.4-4.9 8-14.1 10.5-18.8 7.1-13.7 11.9-21 16-33.6 5.7-17.5 4.5-25.9 3.8-34.1 4.6 29.9-12.7 56-25.7 82.4a177.1 177.1 0 0 0-20.7 72z" fill="url(#o-te)" style="stroke:none;color:rgb(255, 255, 255);stroke-width:1px;stroke-linecap:butt;stroke-linejoin:miter;opacity:1;font-family:&quot;Anthropic Sans&quot;, -apple-system, &quot;system-ui&quot;, &quot;Segoe UI&quot;, sans-serif;font-size:16px;font-weight:400;text-anchor:start;dominant-baseline:auto"/>
        <path d="M194.3 293.4c2.4 5.4 4.6 9.8 6 16.5L195 311c-2.1-7.8-3.8-13.4-6.8-20-17.8-42-46.3-63.6-69.7-79.5 28.2 15.2 57.2 39 75.7 81.9z" fill="url(#o-le)" style="stroke:none;color:rgb(255, 255, 255);stroke-width:1px;stroke-linecap:butt;stroke-linejoin:miter;opacity:1;font-family:&quot;Anthropic Sans&quot;, -apple-system, &quot;system-ui&quot;, &quot;Segoe UI&quot;, sans-serif;font-size:16px;font-weight:400;text-anchor:start;dominant-baseline:auto"/>
        <path d="M200.6 315.1c9.8 46-1.2 104.2-33.6 160.9 27.1-56.2 40.2-110.1 29.3-160z" fill="url(#o-be)" style="stroke:none;color:rgb(255, 255, 255);stroke-width:1px;stroke-linecap:butt;stroke-linejoin:miter;opacity:1;font-family:&quot;Anthropic Sans&quot;, -apple-system, &quot;system-ui&quot;, &quot;Segoe UI&quot;, sans-serif;font-size:16px;font-weight:400;text-anchor:start;dominant-baseline:auto"/>
        <path d="M312.5 311c53.1 19.9 73.6 63.6 88.9 100-19-38.1-45.2-80.3-90.8-96-34.8-11.8-64.1-10.4-114.3 1l-1.1-5c53.2-12.1 81-13.5 117.3 0z" fill="url(#o-me)" style="stroke:none;color:rgb(255, 255, 255);stroke-width:1px;stroke-linecap:butt;stroke-linejoin:miter;opacity:1;font-family:&quot;Anthropic Sans&quot;, -apple-system, &quot;system-ui&quot;, &quot;Segoe UI&quot;, sans-serif;font-size:16px;font-weight:400;text-anchor:start;dominant-baseline:auto"/>
      </g>
    </g>
  </g>

</svg>